<svg width="58" height="58" viewBox="0 0 58 58" fill="none" xmlns="http://www.w3.org/2000/svg">
<path d="M16.588 41.9407L21.6949 40.4676L52.4435 9.35245C52.6861 9.10392 52.8211 8.76997 52.8195 8.42272C52.8178 8.07547 52.6797 7.7428 52.4348 7.49656L50.5933 5.63486C50.4743 5.5126 50.3322 5.41526 50.1751 5.34853C50.0181 5.2818 49.8494 5.24701 49.6787 5.2462C49.5081 5.24539 49.3391 5.27857 49.1814 5.34381C49.0238 5.40905 48.8807 5.50503 48.7605 5.62617L18.0931 36.6601L16.588 41.9407ZM54.2386 1.94628L56.0801 3.81087C58.6205 6.38302 58.6437 10.5327 56.1265 13.0787L24.4412 45.145L13.5256 48.2885C13.1956 48.3812 12.8506 48.4081 12.5102 48.3675C12.1698 48.3269 11.8408 48.2196 11.5419 48.0519C11.2429 47.8841 10.98 47.6591 10.7681 47.3897C10.5561 47.1204 10.3993 46.8119 10.3066 46.4819C10.1644 46.0034 10.1623 45.4942 10.3008 45.0146L13.4763 33.8792L45.0775 1.89698C45.6784 1.29196 46.3938 0.812626 47.1819 0.486948C47.97 0.16127 48.8151 -0.00423639 49.6678 8.23925e-05C50.5205 0.00440118 51.3639 0.178458 52.1486 0.512103C52.9334 0.845747 53.6439 1.3352 54.2386 1.94628ZM20.8336 5.28979C22.272 5.28979 23.4378 6.47002 23.4378 7.92573C23.4401 8.26985 23.3745 8.61104 23.2448 8.9298C23.1152 9.24857 22.9239 9.53865 22.6821 9.78346C22.4402 10.0283 22.1525 10.223 21.8353 10.3565C21.5181 10.4901 21.1777 10.5598 20.8336 10.5617H10.4168C7.53999 10.5617 5.20839 12.9221 5.20839 15.8307V47.4562C5.20839 50.3676 7.53999 52.7281 10.4168 52.7281H41.6671C44.5439 52.7281 46.8784 50.3676 46.8784 47.4562V36.9153C46.8784 35.4596 48.0442 34.2794 49.4826 34.2794C50.921 34.2794 52.0868 35.4596 52.0868 36.9182V47.4562C52.0868 53.2791 47.4207 58 41.6671 58H10.4168C4.66319 58 0 53.2791 0 47.4562V15.8307C0 10.0107 4.66319 5.28979 10.4168 5.28979H20.8336Z" fill="#0E0F1A"/>
</svg>
