<svg width="25" height="32" viewBox="0 0 25 32" fill="none" xmlns="http://www.w3.org/2000/svg">
<path d="M12.5 23.7916C13.2736 23.7916 14.0155 23.4843 14.5624 22.9373C15.1094 22.3903 15.4167 21.6485 15.4167 20.8749C15.4167 20.1014 15.1094 19.3595 14.5624 18.8125C14.0155 18.2655 13.2736 17.9583 12.5 17.9583C11.7265 17.9583 10.9846 18.2655 10.4376 18.8125C9.89067 19.3595 9.58337 20.1014 9.58337 20.8749C9.58337 21.6485 9.89067 22.3903 10.4376 22.9373C10.9846 23.4843 11.7265 23.7916 12.5 23.7916ZM21.25 10.6666C22.0236 10.6666 22.7655 10.9739 23.3124 11.5209C23.8594 12.0678 24.1667 12.8097 24.1667 13.5833V28.1666C24.1667 28.9401 23.8594 29.682 23.3124 30.229C22.7655 30.776 22.0236 31.0833 21.25 31.0833H3.75004C2.97649 31.0833 2.23463 30.776 1.68765 30.229C1.14066 29.682 0.833374 28.9401 0.833374 28.1666V13.5833C0.833374 12.8097 1.14066 12.0678 1.68765 11.5209C2.23463 10.9739 2.97649 10.6666 3.75004 10.6666H5.20837V7.74992C5.20837 5.81605 5.9766 3.96138 7.34405 2.59393C8.71151 1.22648 10.5662 0.458252 12.5 0.458252C13.4576 0.458252 14.4058 0.646857 15.2904 1.0133C16.1751 1.37974 16.9789 1.91684 17.656 2.59393C18.3331 3.27103 18.8702 4.07485 19.2367 4.95952C19.6031 5.84418 19.7917 6.79236 19.7917 7.74992V10.6666H21.25ZM12.5 3.37492C11.3397 3.37492 10.2269 3.83586 9.40645 4.65633C8.58598 5.4768 8.12504 6.5896 8.12504 7.74992V10.6666H16.875V7.74992C16.875 6.5896 16.4141 5.4768 15.5936 4.65633C14.7732 3.83586 13.6604 3.37492 12.5 3.37492Z" fill="#818998"/>
</svg>
