<svg width="29" height="26" viewBox="0 0 29 26" fill="none" xmlns="http://www.w3.org/2000/svg">
<g id="Group 259">
<path id="Vector" d="M28.3266 13.1506C28.3266 11.4794 26.9752 10.1521 25.3282 10.1521C24.5502 10.1511 23.8018 10.4505 23.2392 10.9879C21.1748 9.51303 18.3482 8.55473 15.2024 8.43184L16.5785 1.99252L21.0516 2.95083C21.101 4.08146 22.0347 4.99097 23.1901 4.99097C24.3697 4.99097 25.3282 4.03266 25.3282 2.85242C25.3282 1.67282 24.3699 0.714355 23.1901 0.714355C22.3545 0.714355 21.6169 1.20591 21.2729 1.91876L16.2839 0.861886C16.1364 0.837083 15.9888 0.861886 15.8904 0.935651C15.7675 1.00942 15.6939 1.13214 15.6696 1.27967L14.1453 8.45616C10.9504 8.55473 8.07468 9.51303 5.98574 11.0125C5.4231 10.4751 4.67467 10.1758 3.89664 10.1769C2.22532 10.1769 0.898193 11.5284 0.898193 13.1754C0.898193 14.4041 1.63536 15.4362 2.66792 15.9036C2.61777 16.2041 2.5931 16.5082 2.59415 16.8129C2.59415 21.433 7.97676 25.1938 14.6126 25.1938C21.2485 25.1938 26.6312 21.4578 26.6312 16.8129C26.631 16.5083 26.6063 16.2042 26.5574 15.9036C27.5895 15.4362 28.3266 14.3793 28.3266 13.1506ZM7.73066 15.2886C7.73066 14.109 8.68896 13.1506 9.86921 13.1506C11.0488 13.1506 12.0073 14.1089 12.0073 15.2886C12.0073 16.4684 11.049 17.4272 9.86921 17.4272C8.68913 17.4513 7.73066 16.4684 7.73066 15.2886ZM19.7001 20.9661C18.2255 22.441 15.4235 22.5394 14.6126 22.5394C13.777 22.5394 10.9752 22.4162 9.5247 20.9661C9.30389 20.745 9.30389 20.4008 9.5247 20.1797C9.746 19.9589 10.09 19.9589 10.3113 20.1797C11.2455 21.1138 13.2117 21.433 14.6126 21.433C16.0136 21.433 18.0042 21.1137 18.9135 20.1797C19.1348 19.9589 19.4788 19.9589 19.7001 20.1797C19.8966 20.4008 19.8966 20.745 19.7001 20.9661ZM19.3067 17.4515C18.1269 17.4515 17.1686 16.4932 17.1686 15.3134C17.1686 14.1337 18.1269 13.1754 19.3067 13.1754C20.4867 13.1754 21.445 14.1337 21.445 15.3134C21.445 16.4682 20.4867 17.4515 19.3067 17.4515Z" fill="white"/>
</g>
</svg>
